<?xml version="1.0" encoding="utf-8"?>
<!-- Generator: Adobe Illustrator 19.0.0, SVG Export Plug-In . SVG Version: 6.00 Build 0)  -->
<svg version="1.1" id="Layer_1" xmlns="http://www.w3.org/2000/svg" xmlns:xlink="http://www.w3.org/1999/xlink" x="0px" y="0px"
	 viewBox="0 0 960 560" style="enable-background:new 0 0 960 560;" xml:space="preserve">
<style type="text/css">
	.st0{fill:none;stroke:#000000;stroke-width:4;stroke-miterlimit:10;}
	.st1{fill:#003D77;}
	.st2{fill:#006D40;}
	.st3{fill:#001F3C;}
	.st4{fill:#002E59;}
	.st5{fill:#00DA7F;}
	.st6{fill:#336492;}
</style>
<g id="XMLID_2965_">
	<circle id="XMLID_2962_" class="st0" cx="480.6" cy="279.7" r="81.7"/>
	<g id="XMLID_2891_">
		<g id="XMLID_2915_">
			<polygon id="XMLID_25_" class="st1" points="535.1,295.4 535.1,307.4 528.9,311.1 520.3,304.4 			"/>
			<polygon id="XMLID_24_" class="st1" points="535.1,273.1 535.1,285.3 527.1,290.2 514.5,297.9 505.4,291.5 505.2,291.2 			"/>
			<polygon id="XMLID_23_" class="st2" points="535.1,250.9 535.1,262.1 526.2,267.5 517.6,262.1 			"/>
			<polygon id="XMLID_22_" class="st3" points="535.1,295.4 520.3,304.4 480.8,328.5 442.9,305.1 453.6,301.6 480.8,318.5 
				514.5,297.9 527.1,290.2 			"/>
			<polygon id="XMLID_21_" class="st4" points="528.9,311.1 480.8,340.7 480.8,328.5 520.3,304.4 			"/>
			<polygon id="XMLID_20_" class="st2" points="526.2,267.5 505.4,280.4 499.3,273.7 517.6,262.1 			"/>
			<polygon id="XMLID_19_" class="st5" points="504.2,253.6 517.6,262.1 499.3,273.7 484.2,283.4 484.2,265.8 489.6,262.5 
				499.9,256.3 			"/>
			<polygon id="XMLID_18_" class="st2" points="499.3,273.7 505.4,280.4 484.2,293.4 484.2,286.1 484.2,283.4 			"/>
			<polygon id="XMLID_17_" class="st2" points="484.2,241.1 504.2,253.6 499.9,256.3 484.2,246.3 			"/>
			<polygon id="XMLID_16_" class="st5" points="484.2,218.7 535.1,250.9 517.6,262.1 504.2,253.6 508.4,251 484.2,236.6 			"/>
			<polygon id="XMLID_15_" class="st2" points="484.2,236.6 508.4,251 504.2,253.6 484.2,241.1 			"/>
			<polygon id="XMLID_14_" class="st3" points="484.2,246.3 499.9,256.3 489.6,262.5 480.8,257.4 472,262.7 461.5,255.9 
				477.2,246.7 477.2,240.7 480.4,238.7 484.2,241.1 			"/>
			<polygon id="XMLID_13_" class="st4" points="481.1,305.9 505.2,291.2 505.4,291.5 514.5,297.9 480.8,318.5 480.8,305.9 
				480.9,305.7 			"/>
			<polygon id="XMLID_12_" class="st1" points="434.1,289.5 426.4,284.7 426.4,272.3 443.3,282.6 480.9,305.7 480.8,305.9 
				480.8,318.5 453.6,301.6 			"/>
			<polygon id="XMLID_11_" class="st3" points="484.2,293.4 505.4,280.4 526.2,267.5 535.1,273.1 505.2,291.2 481.1,305.9 
				480.9,305.7 443.3,282.6 454.2,279.2 477.2,293.4 477.2,287.1 477.5,287.1 480.8,289.3 484,286.1 484.2,286.1 			"/>
			<polygon id="XMLID_10_" class="st1" points="480.8,328.5 480.8,340.7 426,306.9 426,294.7 442.9,305.1 			"/>
			<polygon id="XMLID_9_" class="st1" points="480.8,257.4 489.6,262.5 484.2,265.8 484.2,283.4 484.2,286.1 484,286.1 480.8,289.3 
				477.5,287.1 477.2,287.1 477.2,282.1 477.2,266.1 472,262.7 			"/>
			<polygon id="XMLID_8_" class="st2" points="477.2,287.1 477.2,293.4 454.2,279.2 434.7,267.1 443.7,261.5 477.2,282.1 			"/>
			<polygon id="XMLID_7_" class="st5" points="477.2,266.1 477.2,282.1 443.7,261.5 457.2,253.1 461.5,255.9 472,262.7 			"/>
			<polygon id="XMLID_6_" class="st2" points="477.2,236.6 477.2,240.7 457.2,253.1 453.6,250.9 			"/>
			<polygon id="XMLID_5_" class="st2" points="457.2,253.1 477.2,240.7 477.2,246.7 461.5,255.9 			"/>
			<polygon id="XMLID_4_" class="st6" points="434.7,267.1 454.2,279.2 443.3,282.6 426.4,272.3 			"/>
			<polygon id="XMLID_3_" class="st6" points="453.6,301.6 442.9,305.1 426,294.7 434.1,289.5 			"/>
			<polygon id="XMLID_2_" class="st5" points="477.2,218.7 477.2,236.6 453.6,250.9 457.2,253.1 443.7,261.5 426.4,250.9 			"/>
			<polygon id="XMLID_1_" class="st2" points="426.4,250.9 443.7,261.5 434.7,267.1 426.4,262 			"/>
		</g>
		<g id="XMLID_2914_">
		</g>
	</g>
</g>
</svg>
